%TF.GenerationSoftware,KiCad,Pcbnew,9.0.5*%
%TF.CreationDate,2026-09-06T13:10:26+04:00*%
%TF.ProjectId,Mini Keypad,4d696e69-204b-4657-9970-61642e6b6963,rev?*%
%TF.SameCoordinates,Original*%
%TF.FileFunction,Soldermask,Top*%
%TF.FilePolarity,Negative*%
%FSLAX46Y46*%
G04 Gerber Fmt 4.6, Leading zero omitted, Abs format (unit mm)*
G04 Created by KiCad (PCBNEW 9.0.5) date 2026-09-06 13:10:26*
%MOMM*%
%LPD*%
G01*
G04 APERTURE LIST*
G04 Aperture macros list*
%AMRoundRect*
0 Rectangle with rounded corners*
0 $1 Rounding radius*
0 $2 $3 $4 $5 $6 $7 $8 $9 X,Y pos of 4 corners*
0 Add a 4 corners polygon primitive as box body*
4,1,4,$2,$3,$4,$5,$6,$7,$8,$9,$2,$3,0*
0 Add four circle primitives for the rounded corners*
1,1,$1+$1,$2,$3*
1,1,$1+$1,$4,$5*
1,1,$1+$1,$6,$7*
1,1,$1+$1,$8,$9*
0 Add four rect primitives between the rounded corners*
20,1,$1+$1,$2,$3,$4,$5,0*
20,1,$1+$1,$4,$5,$6,$7,0*
20,1,$1+$1,$6,$7,$8,$9,0*
20,1,$1+$1,$8,$9,$2,$3,0*%
G04 Aperture macros list end*
%ADD10C,1.700000*%
%ADD11R,1.700000X1.700000*%
%ADD12RoundRect,0.112500X-0.187500X-0.112500X0.187500X-0.112500X0.187500X0.112500X-0.187500X0.112500X0*%
%ADD13C,4.000000*%
%ADD14C,2.200000*%
G04 APERTURE END LIST*
D10*
%TO.C,J1*%
X46500000Y-110200000D03*
X46500000Y-107660000D03*
X46500000Y-105120000D03*
X46500000Y-102580000D03*
X46500000Y-100040000D03*
X46500000Y-97500000D03*
D11*
X46500000Y-94960000D03*
%TD*%
D12*
%TO.C,D4*%
X80100000Y-75000000D03*
X78000000Y-75000000D03*
%TD*%
D10*
%TO.C,SW5*%
X70880000Y-136580000D03*
D13*
X75960000Y-136580000D03*
D10*
X81040000Y-136580000D03*
D14*
X78500000Y-131500000D03*
X72150000Y-134040000D03*
%TD*%
D10*
%TO.C,SW4*%
X70230000Y-100040000D03*
D13*
X75310000Y-100040000D03*
D10*
X80390000Y-100040000D03*
D14*
X77850000Y-94960000D03*
X71500000Y-97500000D03*
%TD*%
D10*
%TO.C,SW3*%
X107380000Y-137080000D03*
D13*
X112460000Y-137080000D03*
D10*
X117540000Y-137080000D03*
D14*
X115000000Y-132000000D03*
X108650000Y-134540000D03*
%TD*%
D10*
%TO.C,SW2*%
X121880000Y-100080000D03*
D13*
X126960000Y-100080000D03*
D10*
X132040000Y-100080000D03*
D14*
X129500000Y-95000000D03*
X123150000Y-97540000D03*
%TD*%
D10*
%TO.C,SW1*%
X95880000Y-100080000D03*
D13*
X100960000Y-100080000D03*
D10*
X106040000Y-100080000D03*
D14*
X103500000Y-95000000D03*
X97150000Y-97540000D03*
%TD*%
D12*
%TO.C,D5*%
X78450000Y-118500000D03*
X80550000Y-118500000D03*
%TD*%
%TO.C,D2*%
X129450000Y-74500000D03*
X131550000Y-74500000D03*
%TD*%
%TO.C,D1*%
X103450000Y-74500000D03*
X105550000Y-74500000D03*
%TD*%
%TO.C,D3*%
X114950000Y-120000000D03*
X117050000Y-120000000D03*
%TD*%
M02*
