%TF.GenerationSoftware,KiCad,Pcbnew,9.0.5*%
%TF.CreationDate,2026-09-06T13:10:26+04:00*%
%TF.ProjectId,Mini Keypad,4d696e69-204b-4657-9970-61642e6b6963,rev?*%
%TF.SameCoordinates,Original*%
%TF.FileFunction,Copper,L1,Top*%
%TF.FilePolarity,Positive*%
%FSLAX46Y46*%
G04 Gerber Fmt 4.6, Leading zero omitted, Abs format (unit mm)*
G04 Created by KiCad (PCBNEW 9.0.5) date 2026-09-06 13:10:26*
%MOMM*%
%LPD*%
G01*
G04 APERTURE LIST*
G04 Aperture macros list*
%AMRoundRect*
0 Rectangle with rounded corners*
0 $1 Rounding radius*
0 $2 $3 $4 $5 $6 $7 $8 $9 X,Y pos of 4 corners*
0 Add a 4 corners polygon primitive as box body*
4,1,4,$2,$3,$4,$5,$6,$7,$8,$9,$2,$3,0*
0 Add four circle primitives for the rounded corners*
1,1,$1+$1,$2,$3*
1,1,$1+$1,$4,$5*
1,1,$1+$1,$6,$7*
1,1,$1+$1,$8,$9*
0 Add four rect primitives between the rounded corners*
20,1,$1+$1,$2,$3,$4,$5,0*
20,1,$1+$1,$4,$5,$6,$7,0*
20,1,$1+$1,$6,$7,$8,$9,0*
20,1,$1+$1,$8,$9,$2,$3,0*%
G04 Aperture macros list end*
%TA.AperFunction,ComponentPad*%
%ADD10C,1.700000*%
%TD*%
%TA.AperFunction,ComponentPad*%
%ADD11R,1.700000X1.700000*%
%TD*%
%TA.AperFunction,SMDPad,CuDef*%
%ADD12RoundRect,0.112500X-0.187500X-0.112500X0.187500X-0.112500X0.187500X0.112500X-0.187500X0.112500X0*%
%TD*%
%TA.AperFunction,ComponentPad*%
%ADD13C,2.200000*%
%TD*%
%TA.AperFunction,Conductor*%
%ADD14C,0.200000*%
%TD*%
G04 APERTURE END LIST*
D10*
%TO.P,J1,7,Pin_7*%
%TO.N,unconnected-(J1-Pin_7-Pad7)*%
X46500000Y-110200000D03*
%TO.P,J1,6,Pin_6*%
%TO.N,unconnected-(J1-Pin_6-Pad6)*%
X46500000Y-107660000D03*
%TO.P,J1,5,Pin_5*%
%TO.N,Net-(D5-A)*%
X46500000Y-105120000D03*
%TO.P,J1,4,Pin_4*%
%TO.N,Net-(D4-A)*%
X46500000Y-102580000D03*
%TO.P,J1,3,Pin_3*%
%TO.N,Net-(D3-A)*%
X46500000Y-100040000D03*
%TO.P,J1,2,Pin_2*%
%TO.N,Net-(D2-A)*%
X46500000Y-97500000D03*
D11*
%TO.P,J1,1,Pin_1*%
%TO.N,Net-(D1-A)*%
X46500000Y-94960000D03*
%TD*%
D12*
%TO.P,D4,2,A*%
%TO.N,Net-(D4-A)*%
X80100000Y-75000000D03*
%TO.P,D4,1,K*%
%TO.N,Net-(D4-K)*%
X78000000Y-75000000D03*
%TD*%
D13*
%TO.P,SW5,1,1*%
%TO.N,Net-(D5-K)*%
X78500000Y-131500000D03*
%TO.P,SW5,2,2*%
%TO.N,GND*%
X72150000Y-134040000D03*
%TD*%
%TO.P,SW4,1,1*%
%TO.N,Net-(D4-K)*%
X77850000Y-94960000D03*
%TO.P,SW4,2,2*%
%TO.N,GND*%
X71500000Y-97500000D03*
%TD*%
%TO.P,SW3,1,1*%
%TO.N,Net-(D3-K)*%
X115000000Y-132000000D03*
%TO.P,SW3,2,2*%
%TO.N,GND*%
X108650000Y-134540000D03*
%TD*%
%TO.P,SW2,1,1*%
%TO.N,Net-(D2-K)*%
X129500000Y-95000000D03*
%TO.P,SW2,2,2*%
%TO.N,GND*%
X123150000Y-97540000D03*
%TD*%
%TO.P,SW1,1,1*%
%TO.N,Net-(D1-K)*%
X103500000Y-95000000D03*
%TO.P,SW1,2,2*%
%TO.N,GND*%
X97150000Y-97540000D03*
%TD*%
D12*
%TO.P,D5,1,K*%
%TO.N,Net-(D5-K)*%
X78450000Y-118500000D03*
%TO.P,D5,2,A*%
%TO.N,Net-(D5-A)*%
X80550000Y-118500000D03*
%TD*%
%TO.P,D2,1,K*%
%TO.N,Net-(D2-K)*%
X129450000Y-74500000D03*
%TO.P,D2,2,A*%
%TO.N,Net-(D2-A)*%
X131550000Y-74500000D03*
%TD*%
%TO.P,D1,1,K*%
%TO.N,Net-(D1-K)*%
X103450000Y-74500000D03*
%TO.P,D1,2,A*%
%TO.N,Net-(D1-A)*%
X105550000Y-74500000D03*
%TD*%
%TO.P,D3,1,K*%
%TO.N,Net-(D3-K)*%
X114950000Y-120000000D03*
%TO.P,D3,2,A*%
%TO.N,Net-(D3-A)*%
X117050000Y-120000000D03*
%TD*%
D14*
%TO.N,Net-(D4-A)*%
X79112106Y-75000000D02*
X79000000Y-75112106D01*
X80100000Y-75000000D02*
X79112106Y-75000000D01*
%TO.N,Net-(D2-A)*%
X131550000Y-74482900D02*
X131550000Y-74500000D01*
X130640100Y-73573000D02*
X131550000Y-74482900D01*
X129811894Y-73807900D02*
X130046794Y-73573000D01*
X130046794Y-73573000D02*
X130640100Y-73573000D01*
X129811894Y-73974000D02*
X129811894Y-73807900D01*
%TO.N,Net-(D1-A)*%
X104859900Y-73901000D02*
X105458900Y-74500000D01*
X71726760Y-73901000D02*
X104859900Y-73901000D01*
X105458900Y-74500000D02*
X105550000Y-74500000D01*
X46023240Y-98651000D02*
X46976760Y-98651000D01*
X45349000Y-97976760D02*
X46023240Y-98651000D01*
X46976760Y-98651000D02*
X71726760Y-73901000D01*
X45349000Y-96111000D02*
X45349000Y-97976760D01*
X46500000Y-94960000D02*
X45349000Y-96111000D01*
%TO.N,Net-(D2-A)*%
X105026000Y-73500000D02*
X105500000Y-73974000D01*
X68288000Y-73500000D02*
X105026000Y-73500000D01*
X68288000Y-73739100D02*
X68288000Y-73500000D01*
X68522900Y-73974000D02*
X68288000Y-73739100D01*
X70026000Y-73974000D02*
X68522900Y-73974000D01*
X105500000Y-73974000D02*
X129811894Y-73974000D01*
X46500000Y-97500000D02*
X70026000Y-73974000D01*
%TO.N,Net-(D3-A)*%
X116802000Y-132746414D02*
X116802000Y-118802000D01*
X116802000Y-118802000D02*
X117000000Y-119000000D01*
X110051000Y-134441000D02*
X115107414Y-134441000D01*
X109230314Y-135941000D02*
X110051000Y-135120314D01*
X108069686Y-135941000D02*
X109230314Y-135941000D01*
X107249000Y-135120314D02*
X108069686Y-135941000D01*
X107249000Y-134441000D02*
X107249000Y-135120314D01*
X110051000Y-135120314D02*
X110051000Y-134441000D01*
X78311000Y-135606184D02*
X77145816Y-134441000D01*
X74986184Y-138931000D02*
X76933816Y-138931000D01*
X73609000Y-135606184D02*
X73609000Y-137553816D01*
X73551000Y-134441000D02*
X74774184Y-134441000D01*
X73551000Y-134620314D02*
X73551000Y-134441000D01*
X71569686Y-135441000D02*
X72730314Y-135441000D01*
X70749000Y-133459686D02*
X70749000Y-134620314D01*
X72730314Y-132639000D02*
X71569686Y-132639000D01*
X73551000Y-133459686D02*
X72730314Y-132639000D01*
X73551000Y-133639000D02*
X73551000Y-133459686D01*
X107569686Y-133639000D02*
X73551000Y-133639000D01*
X77145816Y-134441000D02*
X107249000Y-134441000D01*
X108069686Y-133139000D02*
X107569686Y-133639000D01*
X109230314Y-133139000D02*
X108069686Y-133139000D01*
X115107414Y-134441000D02*
X116802000Y-132746414D01*
X109730314Y-133639000D02*
X109230314Y-133139000D01*
X114775214Y-133639000D02*
X109730314Y-133639000D01*
X115013214Y-133401000D02*
X114775214Y-133639000D01*
X114419686Y-133401000D02*
X115013214Y-133401000D01*
X113599000Y-132580314D02*
X114419686Y-133401000D01*
X113599000Y-131419686D02*
X113599000Y-132580314D01*
X114549000Y-130599000D02*
X114419686Y-130599000D01*
X114549000Y-120486894D02*
X114549000Y-130599000D01*
X114349000Y-120286894D02*
X114549000Y-120486894D01*
X114349000Y-119713106D02*
X114349000Y-120286894D01*
X114588106Y-119474000D02*
X114349000Y-119713106D01*
X115311894Y-119474000D02*
X114588106Y-119474000D01*
X71569686Y-132639000D02*
X70749000Y-133459686D01*
X115551000Y-119713106D02*
X115311894Y-119474000D01*
X115351000Y-120486894D02*
X115551000Y-120286894D01*
X72730314Y-135441000D02*
X73551000Y-134620314D01*
X115351000Y-130599000D02*
X115351000Y-120486894D01*
X115580314Y-130599000D02*
X115351000Y-130599000D01*
X114419686Y-130599000D02*
X113599000Y-131419686D01*
X73609000Y-137553816D02*
X74986184Y-138931000D01*
X76933816Y-138931000D02*
X78311000Y-137553816D01*
X116000000Y-131018686D02*
X115580314Y-130599000D01*
X116000000Y-118000000D02*
X116000000Y-131018686D01*
X78311000Y-137553816D02*
X78311000Y-135606184D01*
X79500000Y-113000000D02*
X111000000Y-113000000D01*
X46023240Y-103731000D02*
X70231000Y-103731000D01*
X74774184Y-134441000D02*
X73609000Y-135606184D01*
X70231000Y-103731000D02*
X79500000Y-113000000D01*
X45349000Y-103056760D02*
X46023240Y-103731000D01*
X111000000Y-113000000D02*
X116000000Y-118000000D01*
X115551000Y-120286894D02*
X115551000Y-119713106D01*
X70749000Y-134620314D02*
X71569686Y-135441000D01*
X46500000Y-100040000D02*
X45349000Y-101191000D01*
X45349000Y-101191000D02*
X45349000Y-103056760D01*
%TO.N,GND*%
X116401000Y-111000000D02*
X116401000Y-118500000D01*
%TO.N,Net-(D3-A)*%
X117050000Y-119050000D02*
X117000000Y-119000000D01*
X117050000Y-119500000D02*
X117050000Y-119050000D01*
X117050000Y-119500000D02*
X117050000Y-120000000D01*
X117050000Y-118950000D02*
X117050000Y-119500000D01*
X117000000Y-119000000D02*
X117050000Y-118950000D01*
%TO.N,GND*%
X116401000Y-118500000D02*
X116401000Y-132580314D01*
%TO.N,Net-(D4-A)*%
X103639314Y-96959686D02*
X100459686Y-96959686D01*
X124551000Y-96959686D02*
X123730314Y-96139000D01*
X123730314Y-96139000D02*
X104460000Y-96139000D01*
X124551000Y-113100000D02*
X124551000Y-96959686D01*
X104460000Y-96139000D02*
X103639314Y-96959686D01*
X117651000Y-120000000D02*
X124551000Y-113100000D01*
X100459686Y-96959686D02*
X79000000Y-75500000D01*
X118075500Y-119575500D02*
X117651000Y-120000000D01*
X124551000Y-113100000D02*
X118075500Y-119575500D01*
%TO.N,Net-(D3-A)*%
X117050000Y-120000000D02*
X117250000Y-120000000D01*
%TO.N,Net-(D5-A)*%
X80050000Y-118000000D02*
X80550000Y-118500000D01*
X80000000Y-118000000D02*
X80050000Y-118000000D01*
X59354000Y-117974000D02*
X79974000Y-117974000D01*
X46500000Y-105120000D02*
X59354000Y-117974000D01*
X79974000Y-117974000D02*
X80000000Y-118000000D01*
%TO.N,GND*%
X114941314Y-134040000D02*
X72150000Y-134040000D01*
X116401000Y-107257470D02*
X116401000Y-111000000D01*
X123150000Y-100508470D02*
X116401000Y-107257470D01*
X123150000Y-97540000D02*
X123150000Y-100508470D01*
X116401000Y-132580314D02*
X114941314Y-134040000D01*
X71500000Y-97500000D02*
X97110000Y-97500000D01*
X97110000Y-97500000D02*
X97150000Y-97540000D01*
X123110000Y-97500000D02*
X123150000Y-97540000D01*
X71500000Y-97500000D02*
X123110000Y-97500000D01*
%TO.N,Net-(D4-A)*%
X78361894Y-74474000D02*
X74606000Y-74474000D01*
X74606000Y-74474000D02*
X46500000Y-102580000D01*
X79000000Y-75112106D02*
X78361894Y-74474000D01*
X79000000Y-75112106D02*
X79000000Y-75500000D01*
%TO.N,Net-(D2-K)*%
X129500000Y-74550000D02*
X129450000Y-74500000D01*
X129500000Y-95000000D02*
X129500000Y-74550000D01*
%TO.N,Net-(D1-K)*%
X103500000Y-74550000D02*
X103450000Y-74500000D01*
X103500000Y-95000000D02*
X103500000Y-74550000D01*
%TO.N,Net-(D4-K)*%
X77850000Y-75150000D02*
X78000000Y-75000000D01*
X77850000Y-94960000D02*
X77850000Y-75150000D01*
%TO.N,Net-(D5-K)*%
X78500000Y-118550000D02*
X78450000Y-118500000D01*
X78500000Y-131500000D02*
X78500000Y-118550000D01*
%TO.N,Net-(D3-K)*%
X114950000Y-120000000D02*
X114950000Y-131950000D01*
X114950000Y-131950000D02*
X115000000Y-132000000D01*
%TD*%
M02*
